<svg id="Layer_1" data-name="Layer 1" xmlns="http://www.w3.org/2000/svg" viewBox="0 0 512 512"><defs><style>.cls-1{fill:#231f20;}</style></defs><title>gift-glyph</title><path class="cls-1" d="M492.8,115.2h-123A70.29,70.29,0,0,0,256,35,70.29,70.29,0,0,0,142.17,115.2H19.2A19.2,19.2,0,0,0,0,134.4v76.8a19.2,19.2,0,0,0,19.2,19.2H224V115.2H204.8a32,32,0,1,1,32-32v32h38.4v-32a32,32,0,1,1,32,32H288V230.4H492.8A19.2,19.2,0,0,0,512,211.2V134.4A19.2,19.2,0,0,0,492.8,115.2Z"/><path class="cls-1" d="M38.4,480a19.2,19.2,0,0,0,19.2,19.2H224V268.8H38.4Z"/><path class="cls-1" d="M288,499.2H454.4A19.2,19.2,0,0,0,473.6,480V268.8H288Z"/></svg>